# Blender 4.3.2
# www.blender.org
mtllib Base.mtl
o Solid.002
v -0.250787 0.620667 -0.434376
v -0.250787 0.620667 0.434376
v 0.501574 0.620667 0.000000
v 0.752362 0.266000 0.000000
v 0.501574 -0.443333 0.434376
v 0.501574 -0.443333 -0.434376
v 0.125394 -0.443333 -0.651564
v -0.626968 -0.443333 -0.217188
v -0.376181 0.266000 -0.651564
v -0.626968 -0.443333 0.217188
v 0.125394 -0.443333 0.651564
v -0.376181 0.266000 0.651564
vn -0.0000 1.0000 -0.0000
vn 0.9428 -0.3333 -0.0000
vn -0.4714 -0.3333 -0.8165
vn -0.4714 -0.3333 0.8165
vn 0.4714 0.3333 -0.8165
vn -0.9428 0.3333 -0.0000
vn 0.4714 0.3333 0.8165
vn -0.0000 -1.0000 -0.0000
s 0
f 1//1 2//1 3//1
f 4//2 5//2 6//2
f 7//3 8//3 9//3
f 10//4 11//4 12//4
f 1//5 3//5 4//5 6//5 7//5 9//5
f 2//6 1//6 9//6 8//6 10//6 12//6
f 3//7 2//7 12//7 11//7 5//7 4//7
f 6//8 5//8 11//8 10//8 8//8 7//8
